<?xml version="1.0" encoding="utf-8"?>
<!-- Generator: Adobe Illustrator 25.0.1, SVG Export Plug-In . SVG Version: 6.00 Build 0)  -->
<svg version="1.1" id="Layer_1" xmlns="http://www.w3.org/2000/svg" xmlns:xlink="http://www.w3.org/1999/xlink" x="0px"
	y="0px" viewBox="0 0 414 81" style="enable-background:new 0 0 414 81;" xml:space="preserve">
	<style type="text/css">
		.st0 {
			fill: #C66D28;
		}

		.st1 {
			fill: #593A01;
		}
	</style>
	<g>
		<g>
			<path class="st0" d="M67.6,40.8c0-0.1,0.1-0.1,0.1-0.2c0,0,0,0,0,0c0,0,0,0,0,0c0,0,0,0,0,0c0-0.1,0-0.1-0.1-0.1c0,0,0,0,0,0
			c0-0.1-0.1-0.1-0.2-0.1c0,0,0,0,0,0l-13.1-4.3c-1.7-5.6-6.1-10-11.7-11.6l-4.3-13.1c0-0.1-0.1-0.1-0.1-0.2c0,0,0,0,0,0
			C38,11,37.9,11,37.9,11c0,0,0,0,0,0s0,0,0,0c0,0,0,0,0,0c-0.1,0-0.1,0-0.1,0.1c0,0,0,0,0,0c-0.1,0-0.1,0.1-0.1,0.2c0,0,0,0,0,0
			l-4.3,13.1c-5.6,1.6-10.1,6.1-11.7,11.8L8.4,40.5c-0.1,0-0.1,0.1-0.2,0.1c0,0,0,0,0,0c0,0.1-0.1,0.1-0.1,0.2c0,0,0,0,0,0s0,0,0,0
			c0,0,0,0,0,0c0,0.1,0,0.1,0.1,0.1c0,0,0,0,0,0c0,0.1,0.1,0.1,0.2,0.1c0,0,0,0,0,0l13.1,4.3c1.7,5.6,6.1,10,11.7,11.6l4.2,12.7
			c0,0,0,0,0,0c0,0.1,0.1,0.1,0.1,0.2c0,0,0,0,0,0c0,0,0.1,0.1,0.1,0.1c0,0,0,0,0.1,0l0,0l0,0l0,0c0.1,0,0.2,0,0.2-0.1
			c0.1,0,0.1-0.1,0.1-0.2l4.2-12.7c5.8-1.6,10.3-6.1,11.9-11.9l13.1-4.3C67.5,40.9,67.5,40.8,67.6,40.8
			C67.6,40.8,67.6,40.8,67.6,40.8z M25,39.4c0.7-6.5,6.2-11.6,12.9-11.6c7.1,0,13,5.8,13,13c0,1.1-0.2,2.2-0.4,3.3l-5.7-5.5
			c-0.1-0.1-0.3-0.1-0.5,0l-1.5,1l-2.1-2.6c-0.1-0.1-0.2-0.1-0.3-0.1l-0.6,0.1L38,34.3c-0.1-0.1-0.2-0.2-0.3-0.2
			c-0.1,0-0.2,0-0.3,0.1l-5.5,7.1L30,39.4c-0.1-0.1-0.2-0.1-0.3-0.1c-0.1,0-0.2,0.1-0.3,0.2l-3.8,5.3c-0.3-0.9-0.5-1.8-0.6-2.7
			c0-0.4-0.1-0.9-0.1-1.3C24.9,40.2,25,39.8,25,39.4z" />
			<g>
				<path class="st1" d="M84,32.6h4.8v4.5c-0.5,0.5-2,1.9-5.4,1.9c-4,0-6.4-2.8-6.4-5.8c0-2.7,2.1-5.6,6.4-5.6c2.9,0,4.6,1,5.1,1.4
				l-1.3,2.1c-0.7-0.5-1.9-1.4-3.9-1.4c-2.5,0-4.2,1.6-4.2,3.5c0,2,1.4,3.6,4.2,3.6c1.1,0,2.4-0.4,3.2-1v-1.3H84V32.6z" />
				<path class="st1" d="M99.3,28c2,0,3.9,0.7,3.9,3.2c0,2.1-1.4,2.8-2.4,3.2l2.7,4.4h-2.7l-2.7-4.4h-3.5v4.4h-2.2V28H99.3z
				 M94.6,30.1v2.1h4.7c0.6,0,1.7-0.1,1.7-1c0-1-1-1-1.7-1H94.6z" />
				<path class="st1"
					d="M110.5,28h2.9l5.3,10.8h-2.5l-1.1-2.3h-6.3l-1.1,2.3h-2.5L110.5,28z M109.9,34.3h4.2l-2.1-4.2L109.9,34.3z" />
				<path class="st1" d="M121.2,28h2.2l5.9,7.3h0V28h2.2v10.8h-2.2l-5.9-7.3h0v7.3h-2.2V28z" />
				<path class="st1" d="M141.9,28c2.5,0,5.4,1.2,5.4,5.2c0,3.6-2.2,5.5-5.4,5.5h-5.8V28H141.9z M138.3,36.6h3.7
				c1.9,0,3.3-1.1,3.3-3.3c0-2.5-1.6-3.2-3.3-3.2h-3.7V36.6z" />
				<path class="st1" d="M159.8,28v2.2h-7.4v2h3.9v2.2h-3.9v2.3h7.6v2.2h-9.8V28H159.8z" />
				<path class="st1" d="M165.7,28v6.5c0,1.3,0.3,2.4,3,2.4c2.9,0,3-1.2,3-2.4V28h2.2v6.5c0,2.3-1.1,4.6-5.2,4.6
				c-3.7,0-5.2-2-5.2-4.6V28H165.7z" />
				<path class="st1" d="M185,28c2,0,3.9,0.7,3.9,3.2c0,2.1-1.4,2.8-2.4,3.2l2.7,4.4h-2.7l-2.7-4.4h-3.5v4.4h-2.2V28H185z
				 M180.3,30.1v2.1h4.7c0.6,0,1.7-0.1,1.7-1c0-1-1-1-1.7-1H180.3z" />
				<path class="st1" d="M205.3,28c2.1,0,3.9,0.9,3.9,3.4c0,2.4-1.7,3.5-3.9,3.5H201v3.9h-2.2V28H205.3z M201,32.7h4.3
				c0.8,0,1.7-0.1,1.7-1.3c0-1.1-1-1.2-1.7-1.2H201V32.7z" />
				<path class="st1" d="M221.4,28v2.2H214v2h3.9v2.2H214v2.3h7.6v2.2h-9.8V28H221.4z" />
				<path class="st1"
					d="M228.6,28h2.9l5.3,10.8h-2.5l-1.1-2.3h-6.3l-1.1,2.3h-2.5L228.6,28z M228,34.3h4.2l-2.1-4.2L228,34.3z" />
				<path class="st1" d="M240.9,28v4.7l4.6-4.7h2.8l-3.8,3.8l4.4,6.9h-2.6l-3.4-5.3l-2,2v3.3h-2.2V28H240.9z" />
				<path class="st1" d="M258.6,38.7h-2.2V28h9.6v2.2h-7.4v2h3.9v2.2h-3.9V38.7z" />
				<path class="st1" d="M271.2,28v6.5c0,1.3,0.3,2.4,3,2.4c2.9,0,3-1.2,3-2.4V28h2.2v6.5c0,2.3-1.1,4.6-5.2,4.6
				c-3.7,0-5.2-2-5.2-4.6V28H271.2z" />
				<path class="st1" d="M284.4,28h2.2l5.9,7.3h0V28h2.2v10.8h-2.2l-5.9-7.3h0v7.3h-2.2V28z" />
				<path class="st1" d="M305.1,28c2.5,0,5.4,1.2,5.4,5.2c0,3.6-2.2,5.5-5.4,5.5h-5.8V28H305.1z M301.4,36.6h3.7
				c1.9,0,3.3-1.1,3.3-3.3c0-2.5-1.6-3.2-3.3-3.2h-3.7V36.6z" />
				<path class="st1" d="M313.3,35.3c1.9,1.2,3.7,1.6,5.6,1.6c1.1,0,2.9-0.3,2.9-1.5c0-0.9-1-1.1-1.6-1.1l-3.2-0.1
				c-2.6-0.1-3.9-1.6-3.9-3.3c0-1.6,1.2-3.3,5-3.3c2.8,0,4.6,1.1,5.2,1.4l-1,1.9c-0.9-0.4-2.4-1.2-4.6-1.2c-1.1,0-2.6,0.2-2.6,1.2
				c0,0.8,1.2,1,1.9,1l2.8,0.1c2.5,0.1,4.1,1.1,4.1,3.4c0,1.9-1.5,3.5-5.1,3.5c-2.9,0-5.1-0.7-6.5-1.9L313.3,35.3z" />
			</g>
		</g>
		<g>
			<path class="st0" d="M148.8,50.9h2.7v2.5c-0.3,0.3-1.1,1.1-3,1.1c-2.2,0-3.6-1.5-3.6-3.2c0-1.5,1.2-3.1,3.6-3.1
			c1.6,0,2.5,0.6,2.8,0.8l-0.7,1.2c-0.4-0.3-1.1-0.7-2.2-0.7c-1.4,0-2.3,0.9-2.3,1.9c0,1.1,0.8,2,2.4,2c0.6,0,1.3-0.2,1.8-0.6V52
			h-1.5V50.9z" />
			<g>
				<path class="st0" d="M84.6,54.1h-5.3v-5.8h5.1v0.9h-4.3v1.5h3v0.9h-3v1.7h4.5V54.1z" />
				<path class="st0" d="M84.8,54.3h-5.7v-6.2h5.5v1.3h-4.3v1.1h3v1.3h-3v1.3h4.5V54.3z M79.5,53.9h4.9v-0.5H80v-2.1h3v-0.5h-3V49
				h4.3v-0.5h-4.7V53.9z" />
			</g>
			<g>
				<path class="st0" d="M92,54.1h-4.8v-5.8h0.8v5H92V54.1z" />
				<path class="st0" d="M92.2,54.3H87v-6.2h1.2v5h3.9V54.3z M87.4,53.9h4.4v-0.5h-3.9v-5h-0.4V53.9z" />
			</g>
			<g>
				<path class="st0" d="M99.7,54.1h-5.3v-5.8h5.1v0.9h-4.3v1.5h3v0.9h-3v1.7h4.5V54.1z" />
				<path class="st0" d="M99.9,54.3h-5.7v-6.2h5.5v1.3h-4.3v1.1h3v1.3h-3v1.3h4.5V54.3z M94.6,53.9h4.9v-0.5H95v-2.1h3v-0.5h-3V49
				h4.3v-0.5h-4.7V53.9z" />
			</g>
			<g>
				<path class="st0" d="M107.9,48.3l-2.7,5.8h-1l-2.7-5.8h0.9l2.3,4.9l2.3-4.9H107.9z" />
				<path class="st0" d="M105.3,54.3h-1.2l-2.9-6.2h1.4l2.1,4.6l2.1-4.6h1.4L105.3,54.3z M104.3,53.9h0.7l2.5-5.4h-0.5l-2.4,5.1
				l-2.4-5.1h-0.5L104.3,53.9z" />
			</g>
			<g>
				<path class="st0"
					d="M115.8,54.1h-0.9l-0.6-1.3h-3.4l-0.6,1.3h-0.9l2.7-5.8h1.1L115.8,54.1z M113.9,52l-1.3-2.8l-1.3,2.8H113.9z" />
				<path class="st0" d="M116.1,54.3h-1.4l-0.6-1.3H111l-0.6,1.3h-1.4l2.9-6.2h1.3L116.1,54.3z M115,53.9h0.5l-2.5-5.4h-0.8l-2.5,5.4
				h0.5l0.6-1.3h3.7L115,53.9z M114.2,52.2H111l1.6-3.5L114.2,52.2z M111.6,51.8h2l-1-2.1L111.6,51.8z" />
			</g>
			<g>
				<path class="st0" d="M123.1,49.2h-2.4v5h-0.8v-5h-2.4v-0.9h5.7V49.2z" />
				<path class="st0"
					d="M120.9,54.3h-1.2v-5h-2.4v-1.3h6.1v1.3h-2.4V54.3z M120.1,53.9h0.4v-5h2.4v-0.5h-5.3V49h2.4V53.9z" />
			</g>
			<g>
				<path class="st0" d="M130.8,54.1h-5.3v-5.8h5.1v0.9h-4.3v1.5h3v0.9h-3v1.7h4.5V54.1z" />
				<path class="st0" d="M131,54.3h-5.7v-6.2h5.5v1.3h-4.3v1.1h3v1.3h-3v1.3h4.5V54.3z M125.7,53.9h4.9v-0.5h-4.5v-2.1h3v-0.5h-3V49
				h4.3v-0.5h-4.7V53.9z" />
			</g>
			<g>
				<path class="st0" d="M136.6,48.3c0.9,0,1.6,0.3,2.1,0.8c0.5,0.5,0.8,1.3,0.8,2.2c0,0.8-0.3,1.5-0.8,2.1c-0.5,0.5-1.1,0.8-1.9,0.8
				h-3.4v-5.8H136.6z M136.8,53.3c0.5,0,0.9-0.2,1.2-0.6c0.3-0.4,0.5-0.9,0.5-1.4c0-0.6-0.2-1.1-0.5-1.5c-0.3-0.4-0.8-0.6-1.4-0.6
				h-2.4v4.1H136.8z" />
				<path class="st0" d="M136.8,54.3h-3.6v-6.2h3.4c0.9,0,1.7,0.3,2.2,0.9c0.6,0.6,0.8,1.4,0.8,2.3c0,0.9-0.3,1.6-0.9,2.2
				C138.3,54.1,137.6,54.3,136.8,54.3z M133.6,53.9h3.2c0.7,0,1.3-0.2,1.7-0.7c0.5-0.5,0.8-1.2,0.8-1.9c0-0.8-0.2-1.5-0.7-2
				c-0.5-0.5-1.1-0.7-2-0.7h-3V53.9z M136.8,53.5H134V49h2.6c0.6,0,1.1,0.2,1.5,0.6c0.4,0.4,0.6,1,0.6,1.6c0,0.6-0.2,1.2-0.5,1.6
				C137.9,53.3,137.4,53.5,136.8,53.5z M134.4,53.1h2.4c0.4,0,0.8-0.2,1.1-0.5c0.3-0.3,0.4-0.8,0.4-1.3c0-0.6-0.2-1-0.5-1.4
				c-0.3-0.3-0.7-0.5-1.2-0.5h-2.2V53.1z" />
			</g>
			<g>
				<path class="st0" d="M159.4,54.1h-4.8v-5.8h0.8v5h3.9V54.1z" />
				<path class="st0" d="M159.6,54.3h-5.2v-6.2h1.2v5h3.9V54.3z M154.9,53.9h4.4v-0.5h-3.9v-5h-0.4V53.9z" />
			</g>
			<g>
				<path class="st0" d="M168,51.2c0,1-0.3,1.7-1,2.3c-0.6,0.5-1.3,0.8-2.2,0.8c-0.9,0-1.6-0.3-2.2-0.8c-0.7-0.6-1-1.4-1-2.3
				c0-0.9,0.3-1.7,1-2.3c0.6-0.5,1.3-0.8,2.2-0.8c0.9,0,1.6,0.3,2.2,0.8C167.7,49.5,168,50.3,168,51.2z M167.2,51.2
				c0-0.7-0.3-1.2-0.8-1.7c-0.4-0.4-1-0.5-1.6-0.5c-0.7,0-1.3,0.2-1.7,0.6c-0.4,0.4-0.7,0.9-0.7,1.6c0,0.7,0.2,1.2,0.7,1.6
				c0.4,0.4,1,0.6,1.7,0.6c0.7,0,1.3-0.2,1.7-0.6C166.9,52.4,167.2,51.9,167.2,51.2z" />
				<path class="st0" d="M164.8,54.5c-0.9,0-1.7-0.3-2.4-0.8c-0.7-0.6-1.1-1.5-1.1-2.5c0-1,0.4-1.8,1.1-2.5c0.6-0.6,1.4-0.8,2.4-0.8
				c0.9,0,1.7,0.3,2.4,0.8c0.7,0.6,1.1,1.5,1.1,2.5c0,1-0.4,1.8-1.1,2.5C166.5,54.2,165.7,54.5,164.8,54.5z M164.8,48.3
				c-0.8,0-1.5,0.2-2.1,0.7c-0.7,0.6-1,1.3-1,2.2c0,0.9,0.3,1.6,1,2.2c0.6,0.5,1.3,0.7,2.1,0.7c0.8,0,1.5-0.2,2.1-0.7
				c0.6-0.6,1-1.3,1-2.2c0-0.9-0.3-1.6-1-2.2C166.3,48.6,165.6,48.3,164.8,48.3z M164.8,53.6c-0.8,0-1.4-0.2-1.9-0.7
				c-0.5-0.4-0.7-1-0.7-1.7c0-0.7,0.2-1.3,0.7-1.7c0.5-0.5,1.1-0.7,1.9-0.7c0.7,0,1.3,0.2,1.7,0.6c0.5,0.5,0.8,1.1,0.8,1.8
				c0,0.7-0.2,1.3-0.7,1.7C166.2,53.4,165.5,53.6,164.8,53.6z M164.8,49.2c-0.7,0-1.2,0.2-1.6,0.6c-0.4,0.4-0.6,0.8-0.6,1.4
				c0,0.6,0.2,1.1,0.6,1.5c0.4,0.4,0.9,0.6,1.6,0.6c0.7,0,1.2-0.2,1.6-0.6c0.4-0.4,0.6-0.8,0.6-1.4c0-0.6-0.2-1.1-0.7-1.5
				C165.9,49.4,165.4,49.2,164.8,49.2z" />
			</g>
			<g>
				<path class="st0" d="M175.9,51.1c0.6,0.2,0.9,0.7,0.9,1.5c0,1-0.6,1.5-1.9,1.5h-4v-5.8h4.1c0.5,0,0.9,0.1,1.2,0.4
				c0.3,0.3,0.4,0.7,0.4,1.2C176.6,50.4,176.3,50.9,175.9,51.1z M174.9,50.8c0.2,0,0.4-0.1,0.6-0.2c0.2-0.2,0.2-0.3,0.2-0.6
				c0-0.2-0.1-0.4-0.2-0.6c-0.1-0.1-0.3-0.2-0.6-0.2h-3.3v1.6H174.9z M174.9,53.3c0.7,0,1.1-0.3,1.1-0.8c0-0.6-0.3-0.9-0.9-0.9h-3.3
				v1.7H174.9z" />
				<path class="st0"
					d="M174.9,54.3h-4.2v-6.2h4.3c0.6,0,1,0.2,1.4,0.5c0.3,0.3,0.5,0.8,0.5,1.3c0,0.5-0.2,0.9-0.5,1.2
				c0.5,0.3,0.7,0.8,0.7,1.5C177,53.4,176.6,54.3,174.9,54.3z M171,53.9h3.8c1.5,0,1.7-0.8,1.7-1.3c0-0.7-0.2-1.1-0.7-1.3l-0.4-0.1
				l0.3-0.2c0.4-0.3,0.6-0.6,0.6-1.1c0-0.4-0.1-0.8-0.4-1c-0.3-0.3-0.6-0.4-1.1-0.4H171V53.9z M174.9,53.5h-3.4v-2.1h3.5
				c0.7,0,1.1,0.4,1.1,1.1C176.1,52.9,176,53.5,174.9,53.5z M171.9,53.1h3c0.8,0,0.8-0.3,0.8-0.6c0-0.5-0.2-0.7-0.7-0.7h-3.1V53.1z
				 M174.9,51h-3.5v-2h3.5c0.3,0,0.5,0.1,0.7,0.3c0.2,0.2,0.3,0.4,0.3,0.7c0,0.3-0.1,0.5-0.3,0.7C175.5,50.9,175.2,51,174.9,51z
				 M171.9,50.6h3.1c0.2,0,0.3-0.1,0.4-0.2c0.1-0.1,0.2-0.3,0.2-0.4c0-0.2,0-0.3-0.2-0.4c-0.1-0.1-0.2-0.2-0.4-0.2h-3.1V50.6z" />
			</g>
			<g>
				<path class="st0"
					d="M185.3,54.1h-0.9l-0.6-1.3h-3.4l-0.6,1.3h-0.9l2.7-5.8h1.1L185.3,54.1z M183.3,52l-1.3-2.8l-1.3,2.8H183.3z" />
				<path class="st0" d="M185.6,54.3h-1.4l-0.6-1.3h-3.2l-0.6,1.3h-1.4l2.9-6.2h1.3L185.6,54.3z M184.5,53.9h0.5l-2.5-5.4h-0.8
				l-2.5,5.4h0.5l0.6-1.3h3.7L184.5,53.9z M183.7,52.2h-3.2l1.6-3.5L183.7,52.2z M181.1,51.8h2l-1-2.1L181.1,51.8z" />
			</g>
			<g>
				<path class="st0" d="M192.3,54.1h-4.8v-5.8h0.8v5h3.9V54.1z" />
				<path class="st0" d="M192.5,54.3h-5.2v-6.2h1.2v5h3.9V54.3z M187.8,53.9h4.4v-0.5h-3.9v-5h-0.4V53.9z" />
			</g>
			<g>
				<path class="st0" d="M199,54.1h-0.8v-5.8h0.8V54.1z" />
				<path class="st0" d="M199.2,54.3h-1.2v-6.2h1.2V54.3z M198.3,53.9h0.4v-5.4h-0.4V53.9z" />
			</g>
			<g>
				<path class="st0" d="M207.8,54.1h-1l-3.9-4.8v4.8H202v-5.8h1l3.9,4.8v-4.8h0.8V54.1z" />
				<path class="st0" d="M208,54.3h-1.3l-3.6-4.4v4.4h-1.2v-6.2h1.3l3.6,4.4v-4.4h1.2V54.3z M206.8,53.9h0.7v-5.4h-0.4v5.1l-4.2-5.1
				h-0.7v5.4h0.4v-5.1L206.8,53.9z" />
			</g>
			<g>
				<path class="st0" d="M216.5,48.3l-2.7,5.8h-1l-2.7-5.8h0.9l2.3,4.9l2.3-4.9H216.5z" />
				<path class="st0" d="M213.8,54.3h-1.2l-2.9-6.2h1.4l2.1,4.6l2.1-4.6h1.4L213.8,54.3z M212.9,53.9h0.7l2.5-5.4h-0.5l-2.4,5.1
				l-2.4-5.1h-0.5L212.9,53.9z" />
			</g>
			<g>
				<path class="st0" d="M224,54.1h-5.3v-5.8h5.1v0.9h-4.3v1.5h3v0.9h-3v1.7h4.5V54.1z" />
				<path class="st0" d="M224.2,54.3h-5.7v-6.2h5.5v1.3h-4.3v1.1h3v1.3h-3v1.3h4.5V54.3z M218.9,53.9h4.9v-0.5h-4.5v-2.1h3v-0.5h-3
				V49h4.3v-0.5h-4.7V53.9z" />
			</g>
			<g>
				<path class="st0" d="M231.1,49.7c-0.8-0.4-1.5-0.7-2.3-0.7c-0.5,0-0.9,0.1-1.2,0.2c-0.3,0.1-0.4,0.3-0.4,0.6
				c0,0.3,0.1,0.4,0.4,0.6c0.2,0.1,0.6,0.1,1,0.2c0.7,0.1,1.2,0.1,1.4,0.1c0.6,0.1,1.1,0.3,1.4,0.5c0.3,0.3,0.5,0.6,0.5,1.1
				c0,0.6-0.2,1.1-0.7,1.4c-0.5,0.3-1.2,0.5-2.1,0.5c-1.3,0-2.3-0.3-3-1l0.5-0.7c0.8,0.6,1.6,0.8,2.6,0.8c0.6,0,1.1-0.1,1.4-0.3
				c0.3-0.2,0.5-0.4,0.5-0.7c0-0.4-0.2-0.6-0.6-0.7c-0.2-0.1-0.8-0.1-1.7-0.2c-0.8-0.1-1.4-0.2-1.8-0.4c-0.4-0.2-0.6-0.6-0.6-1.1
				c0-0.5,0.2-1,0.7-1.3c0.4-0.3,1.1-0.5,1.9-0.5c1.1,0,2,0.3,2.7,0.9L231.1,49.7z" />
				<path class="st0" d="M229.1,54.5c-1.3,0-2.4-0.3-3.2-1l-0.1-0.1l0.7-1l0.2,0.1c0.8,0.5,1.6,0.8,2.4,0.8c0.6,0,1-0.1,1.3-0.3
				c0.2-0.1,0.4-0.3,0.4-0.6c0-0.2-0.1-0.4-0.5-0.5c-0.1,0-0.5-0.1-1.7-0.2c-0.9-0.1-1.5-0.2-1.8-0.4c-0.5-0.3-0.7-0.7-0.7-1.3
				c0-0.6,0.3-1.1,0.8-1.5c0.5-0.3,1.2-0.5,2-0.5c1.1,0,2.1,0.3,2.9,0.9l0.2,0.1l-0.7,0.9l-0.2-0.1c-0.7-0.4-1.5-0.6-2.2-0.6
				c-0.5,0-0.9,0.1-1.1,0.2c-0.3,0.1-0.3,0.3-0.3,0.4c0,0.1,0,0.3,0.3,0.4c0.2,0.1,0.5,0.1,1,0.2c0.7,0.1,1.2,0.1,1.4,0.1
				c0.7,0.1,1.2,0.3,1.5,0.6c0.3,0.3,0.5,0.7,0.5,1.3c0,0.7-0.3,1.2-0.8,1.6C230.8,54.3,230.1,54.5,229.1,54.5z M226.4,53.3
				c0.7,0.5,1.6,0.8,2.8,0.8c0.8,0,1.5-0.2,1.9-0.5c0.4-0.3,0.6-0.7,0.6-1.3c0-0.4-0.1-0.7-0.4-1c-0.3-0.2-0.7-0.4-1.3-0.5
				c-0.2,0-0.7-0.1-1.4-0.1c-0.5,0-0.9-0.1-1.1-0.2c-0.5-0.2-0.6-0.5-0.6-0.8c0-0.2,0.1-0.5,0.5-0.8c0.3-0.2,0.7-0.2,1.3-0.2
				c0.8,0,1.5,0.2,2.2,0.6l0.3-0.4c-0.7-0.5-1.5-0.7-2.5-0.7c-0.8,0-1.4,0.1-1.8,0.4c-0.4,0.3-0.6,0.6-0.6,1.1c0,0.5,0.2,0.8,0.5,1
				c0.3,0.2,0.9,0.3,1.7,0.4c1,0.1,1.5,0.1,1.8,0.2c0.6,0.2,0.8,0.6,0.8,0.9c0,0.4-0.2,0.7-0.6,0.9c-0.4,0.2-0.8,0.3-1.5,0.3
				c-0.9,0-1.7-0.3-2.5-0.8L226.4,53.3z" />
			</g>
			<g>
				<path class="st0" d="M239.5,49.2h-2.4v5h-0.8v-5h-2.4v-0.9h5.7V49.2z" />
				<path class="st0"
					d="M237.3,54.3h-1.2v-5h-2.4v-1.3h6.1v1.3h-2.4V54.3z M236.5,53.9h0.4v-5h2.4v-0.5h-5.3V49h2.4V53.9z" />
			</g>
			<g>
				<path class="st0" d="M242.7,54.1h-0.8v-5.8h0.8V54.1z" />
				<path class="st0" d="M242.9,54.3h-1.2v-6.2h1.2V54.3z M242.1,53.9h0.4v-5.4h-0.4V53.9z" />
			</g>
			<g>
				<path class="st0" d="M251.5,54.1h-1l-3.9-4.8v4.8h-0.8v-5.8h1l3.9,4.8v-4.8h0.8V54.1z" />
				<path class="st0" d="M251.7,54.3h-1.3l-3.6-4.4v4.4h-1.2v-6.2h1.3l3.6,4.4v-4.4h1.2V54.3z M250.6,53.9h0.7v-5.4h-0.4v5.1
				l-4.2-5.1H246v5.4h0.4v-5.1L250.6,53.9z" />
			</g>
			<g>
				<path class="st0" d="M271.8,52h-1.1v-0.9h1.1V52z" />
				<path class="st0" d="M272,52.2h-1.5v-1.3h1.5V52.2z M271,51.8h0.7v-0.5H271V51.8z" />
			</g>
			<g>
				<path class="st0"
					d="M287.7,54.1h-0.9l-0.6-1.3h-3.4l-0.6,1.3h-0.9l2.7-5.8h1.1L287.7,54.1z M285.8,52l-1.3-2.8l-1.3,2.8H285.8z" />
				<path class="st0" d="M288,54.3h-1.4l-0.6-1.3h-3.2l-0.6,1.3H281l2.9-6.2h1.3L288,54.3z M286.9,53.9h0.5l-2.5-5.4h-0.8l-2.5,5.4
				h0.5l0.6-1.3h3.7L286.9,53.9z M286.1,52.2h-3.2l1.6-3.5L286.1,52.2z M283.5,51.8h2l-1-2.1L283.5,51.8z" />
			</g>
			<g>
				<path class="st0"
					d="M296,49.6l-0.8,0.3c-0.5-0.6-1.2-0.9-2.2-0.9c-0.7,0-1.3,0.2-1.7,0.6c-0.4,0.4-0.7,0.9-0.7,1.6
				c0,0.7,0.2,1.2,0.7,1.6c0.4,0.4,1,0.6,1.8,0.6c0.9,0,1.6-0.3,2.1-1l0.7,0.5c-0.4,0.5-0.8,0.8-1.2,1.1c-0.5,0.2-1,0.3-1.6,0.3
				c-0.9,0-1.6-0.3-2.2-0.8c-0.7-0.6-1-1.4-1-2.3c0-0.9,0.3-1.7,1-2.3c0.6-0.5,1.3-0.8,2.2-0.8C294.3,48.1,295.3,48.6,296,49.6z" />
				<path class="st0" d="M293,54.5c-0.9,0-1.7-0.3-2.4-0.8c-0.7-0.6-1.1-1.5-1.1-2.5c0-1,0.4-1.8,1.1-2.5c0.6-0.6,1.4-0.8,2.4-0.8
				c1.3,0,2.4,0.5,3.1,1.6l0.1,0.2l-1.1,0.5l-0.1-0.1c-0.5-0.6-1.1-0.9-2-0.9c-0.6,0-1.2,0.2-1.6,0.6c-0.4,0.4-0.6,0.8-0.6,1.4
				c0,0.6,0.2,1.1,0.6,1.5c0.4,0.4,0.9,0.6,1.6,0.6c0.8,0,1.5-0.3,2-0.9l0.1-0.1l1.1,0.7l-0.1,0.2c-0.4,0.5-0.8,0.9-1.3,1.1
				C294.3,54.4,293.7,54.5,293,54.5z M293,48.3c-0.8,0-1.5,0.2-2.1,0.7c-0.6,0.6-1,1.3-1,2.2c0,0.9,0.3,1.6,0.9,2.2
				c0.6,0.5,1.3,0.7,2.1,0.7c0.6,0,1.1-0.1,1.6-0.3c0.4-0.2,0.7-0.5,1-0.8l-0.4-0.2c-0.5,0.6-1.3,0.9-2.2,0.9
				c-0.8,0-1.4-0.2-1.9-0.7c-0.5-0.4-0.7-1-0.7-1.7c0-0.7,0.2-1.3,0.7-1.7c0.5-0.4,1.1-0.7,1.8-0.7c0.9,0,1.7,0.3,2.2,0.9l0.4-0.2
				C295,48.7,294.2,48.3,293,48.3z" />
			</g>
			<g>
				<path class="st0" d="M303.7,49.2h-2.4v5h-0.8v-5H298v-0.9h5.7V49.2z" />
				<path class="st0"
					d="M301.5,54.3h-1.2v-5h-2.4v-1.3h6.1v1.3h-2.4V54.3z M300.6,53.9h0.4v-5h2.4v-0.5h-5.3V49h2.4V53.9z" />
			</g>
			<g>
				<path class="st0" d="M306.9,54.1h-0.8v-5.8h0.8V54.1z" />
				<path class="st0" d="M307.1,54.3h-1.2v-6.2h1.2V54.3z M306.3,53.9h0.4v-5.4h-0.4V53.9z" />
			</g>
			<g>
				<path class="st0" d="M315.6,48.3l-2.7,5.8h-1l-2.7-5.8h0.9l2.3,4.9l2.3-4.9H315.6z" />
				<path class="st0" d="M313,54.3h-1.2l-2.9-6.2h1.4l2.1,4.6l2.1-4.6h1.4L313,54.3z M312,53.9h0.7l2.5-5.4h-0.5l-2.4,5.1l-2.4-5.1
				h-0.5L312,53.9z" />
			</g>
			<g>
				<path class="st0" d="M323.1,54.1h-5.3v-5.8h5.1v0.9h-4.3v1.5h3v0.9h-3v1.7h4.5V54.1z" />
				<path class="st0" d="M323.3,54.3h-5.7v-6.2h5.5v1.3h-4.3v1.1h3v1.3h-3v1.3h4.5V54.3z M318,53.9h4.9v-0.5h-4.5v-2.1h3v-0.5h-3V49
				h4.3v-0.5H318V53.9z" />
			</g>
			<g>
				<path class="st0"
					d="M334.9,54.1H334l-0.6-1.3H330l-0.6,1.3h-0.9l2.7-5.8h1.1L334.9,54.1z M333,52l-1.3-2.8l-1.3,2.8H333z" />
				<path class="st0" d="M335.2,54.3h-1.4l-0.6-1.3h-3.2l-0.6,1.3h-1.4l2.9-6.2h1.3L335.2,54.3z M334.1,53.9h0.5l-2.5-5.4h-0.8
				l-2.5,5.4h0.5l0.6-1.3h3.7L334.1,53.9z M333.3,52.2h-3.2l1.6-3.5L333.3,52.2z M330.7,51.8h2l-1-2.1L330.7,51.8z" />
			</g>
			<g>
				<path class="st0" d="M342.2,49.2h-2.4v5h-0.8v-5h-2.4v-0.9h5.7V49.2z" />
				<path class="st0"
					d="M340,54.3h-1.2v-5h-2.4v-1.3h6.1v1.3H340V54.3z M339.1,53.9h0.4v-5h2.4v-0.5h-5.3V49h2.4V53.9z" />
			</g>
			<g>
				<path class="st0" d="M348.8,54.1H348v-5.8h0.8V54.1z" />
				<path class="st0" d="M349,54.3h-1.2v-6.2h1.2V54.3z M348.2,53.9h0.4v-5.4h-0.4V53.9z" />
			</g>
			<g>
				<path class="st0" d="M356.9,49.2h-2.4v5h-0.8v-5h-2.4v-0.9h5.7V49.2z" />
				<path class="st0"
					d="M354.6,54.3h-1.2v-5H351v-1.3h6.1v1.3h-2.4V54.3z M353.8,53.9h0.4v-5h2.4v-0.5h-5.3V49h2.4V53.9z" />
			</g>
			<g>
				<path class="st0" d="M363.6,49.7c-0.8-0.4-1.5-0.7-2.3-0.7c-0.5,0-0.9,0.1-1.2,0.2c-0.3,0.1-0.4,0.3-0.4,0.6
				c0,0.3,0.1,0.4,0.4,0.6c0.2,0.1,0.6,0.1,1,0.2c0.7,0.1,1.2,0.1,1.4,0.1c0.6,0.1,1.1,0.3,1.4,0.5c0.3,0.3,0.5,0.6,0.5,1.1
				c0,0.6-0.2,1.1-0.7,1.4c-0.5,0.3-1.2,0.5-2.1,0.5c-1.3,0-2.3-0.3-3-1l0.5-0.7c0.8,0.6,1.6,0.8,2.6,0.8c0.6,0,1.1-0.1,1.4-0.3
				c0.3-0.2,0.5-0.4,0.5-0.7c0-0.4-0.2-0.6-0.6-0.7c-0.2-0.1-0.8-0.1-1.7-0.2c-0.8-0.1-1.4-0.2-1.8-0.4c-0.4-0.2-0.6-0.6-0.6-1.1
				c0-0.5,0.2-1,0.7-1.3c0.4-0.3,1.1-0.5,1.9-0.5c1.1,0,2,0.3,2.7,0.9L363.6,49.7z" />
				<path class="st0" d="M361.7,54.5c-1.3,0-2.4-0.3-3.2-1l-0.1-0.1l0.7-1l0.2,0.1c0.8,0.5,1.6,0.8,2.4,0.8c0.6,0,1-0.1,1.3-0.3
				c0.3-0.1,0.4-0.3,0.4-0.6c0-0.2-0.1-0.4-0.5-0.5c-0.1,0-0.5-0.1-1.7-0.2c-0.9-0.1-1.5-0.2-1.8-0.4c-0.5-0.3-0.7-0.7-0.7-1.3
				c0-0.6,0.3-1.1,0.8-1.5c0.5-0.3,1.2-0.5,2-0.5c1.1,0,2.1,0.3,2.9,0.9l0.2,0.1l-0.7,0.9l-0.2-0.1c-0.7-0.4-1.5-0.6-2.2-0.6
				c-0.5,0-0.9,0.1-1.1,0.2c-0.3,0.1-0.3,0.3-0.3,0.4c0,0.1,0,0.3,0.3,0.4c0.2,0.1,0.5,0.1,1,0.2c0.7,0.1,1.2,0.1,1.4,0.1
				c0.7,0.1,1.2,0.3,1.5,0.6c0.3,0.3,0.5,0.7,0.5,1.3c0,0.7-0.3,1.2-0.8,1.6C363.4,54.3,362.6,54.5,361.7,54.5z M358.9,53.3
				c0.7,0.5,1.6,0.8,2.8,0.8c0.8,0,1.5-0.2,1.9-0.5c0.4-0.3,0.6-0.7,0.6-1.3c0-0.4-0.1-0.7-0.4-1c-0.3-0.2-0.7-0.4-1.3-0.5
				c-0.2,0-0.7-0.1-1.4-0.1c-0.5,0-0.9-0.1-1.1-0.2c-0.5-0.2-0.6-0.5-0.6-0.8c0-0.2,0.1-0.5,0.5-0.8c0.3-0.2,0.7-0.2,1.3-0.2
				c0.8,0,1.5,0.2,2.2,0.6l0.3-0.4c-0.7-0.5-1.5-0.7-2.5-0.7c-0.8,0-1.4,0.1-1.8,0.4c-0.4,0.3-0.6,0.6-0.6,1.1c0,0.5,0.2,0.8,0.5,1
				c0.3,0.2,0.9,0.3,1.7,0.4c1,0.1,1.5,0.1,1.8,0.2c0.6,0.2,0.8,0.6,0.8,0.9c0,0.4-0.2,0.7-0.6,0.9c-0.4,0.2-0.8,0.3-1.5,0.3
				c-0.9,0-1.7-0.3-2.5-0.8L358.9,53.3z" />
			</g>
			<g>
				<path class="st0" d="M375.7,51.1c0.6,0.2,0.9,0.7,0.9,1.5c0,1-0.6,1.5-1.9,1.5h-4v-5.8h4.1c0.5,0,0.9,0.1,1.2,0.4
				c0.3,0.3,0.4,0.7,0.4,1.2C376.3,50.4,376.1,50.9,375.7,51.1z M374.7,50.8c0.2,0,0.4-0.1,0.6-0.2c0.2-0.2,0.2-0.3,0.2-0.6
				c0-0.2-0.1-0.4-0.2-0.6c-0.1-0.1-0.3-0.2-0.6-0.2h-3.3v1.6H374.7z M374.6,53.3c0.7,0,1.1-0.3,1.1-0.8c0-0.6-0.3-0.9-0.9-0.9h-3.3
				v1.7H374.6z" />
				<path class="st0"
					d="M374.6,54.3h-4.2v-6.2h4.3c0.6,0,1,0.2,1.4,0.5c0.3,0.3,0.5,0.8,0.5,1.3c0,0.5-0.2,0.9-0.5,1.2
				c0.5,0.3,0.7,0.8,0.7,1.5C376.8,53.4,376.4,54.3,374.6,54.3z M370.8,53.9h3.8c1.5,0,1.7-0.8,1.7-1.3c0-0.7-0.2-1.1-0.7-1.3
				l-0.4-0.1l0.3-0.2c0.4-0.3,0.6-0.6,0.6-1.1c0-0.4-0.1-0.8-0.4-1c-0.3-0.3-0.6-0.4-1.1-0.4h-3.9V53.9z M374.6,53.5h-3.4v-2.1h3.5
				c0.7,0,1.1,0.4,1.1,1.1C375.9,52.9,375.7,53.5,374.6,53.5z M371.6,53.1h3c0.8,0,0.9-0.3,0.9-0.6c0-0.5-0.2-0.7-0.7-0.7h-3.1V53.1
				z M374.7,51h-3.5v-2h3.5c0.3,0,0.5,0.1,0.7,0.3c0.2,0.2,0.3,0.4,0.3,0.7c0,0.3-0.1,0.5-0.3,0.7C375.2,50.9,375,51,374.7,51z
				 M371.6,50.6h3.1c0.2,0,0.3-0.1,0.4-0.2c0.1-0.1,0.2-0.3,0.2-0.4c0-0.2,0-0.3-0.2-0.4c-0.1-0.1-0.2-0.2-0.4-0.2h-3.1V50.6z" />
			</g>
			<g>
				<path class="st0" d="M384.7,54.1h-5.3v-5.8h5.1v0.9h-4.3v1.5h3v0.9h-3v1.7h4.5V54.1z" />
				<path class="st0" d="M384.9,54.3h-5.7v-6.2h5.5v1.3h-4.3v1.1h3v1.3h-3v1.3h4.5V54.3z M379.6,53.9h4.9v-0.5H380v-2.1h3v-0.5h-3V49
				h4.3v-0.5h-4.7V53.9z" />
			</g>
			<g>
				<path class="st0" d="M391.7,49.7c-0.8-0.4-1.5-0.7-2.3-0.7c-0.5,0-0.9,0.1-1.2,0.2c-0.3,0.1-0.4,0.3-0.4,0.6
				c0,0.3,0.1,0.4,0.4,0.6c0.2,0.1,0.6,0.1,1,0.2c0.7,0.1,1.2,0.1,1.4,0.1c0.6,0.1,1.1,0.3,1.4,0.5c0.3,0.3,0.5,0.6,0.5,1.1
				c0,0.6-0.2,1.1-0.7,1.4c-0.5,0.3-1.2,0.5-2.1,0.5c-1.3,0-2.3-0.3-3-1l0.5-0.7c0.8,0.6,1.6,0.8,2.6,0.8c0.6,0,1.1-0.1,1.4-0.3
				c0.3-0.2,0.5-0.4,0.5-0.7c0-0.4-0.2-0.6-0.6-0.7c-0.2-0.1-0.8-0.1-1.7-0.2c-0.8-0.1-1.4-0.2-1.8-0.4c-0.4-0.2-0.6-0.6-0.6-1.1
				c0-0.5,0.2-1,0.7-1.3c0.4-0.3,1.1-0.5,1.9-0.5c1.1,0,2,0.3,2.7,0.9L391.7,49.7z" />
				<path class="st0" d="M389.8,54.5c-1.3,0-2.4-0.3-3.2-1l-0.1-0.1l0.7-1l0.2,0.1c0.8,0.5,1.6,0.8,2.4,0.8c0.6,0,1-0.1,1.3-0.3
				c0.3-0.1,0.4-0.3,0.4-0.6c0-0.2-0.1-0.4-0.5-0.5c-0.1,0-0.5-0.1-1.7-0.2c-0.9-0.1-1.5-0.2-1.8-0.4c-0.5-0.3-0.7-0.7-0.7-1.3
				c0-0.6,0.3-1.1,0.8-1.5c0.5-0.3,1.2-0.5,2-0.5c1.1,0,2.1,0.3,2.9,0.9l0.2,0.1l-0.7,0.9l-0.2-0.1c-0.7-0.4-1.5-0.6-2.2-0.6
				c-0.5,0-0.9,0.1-1.1,0.2c-0.3,0.1-0.3,0.3-0.3,0.4c0,0.1,0,0.3,0.3,0.4c0.2,0.1,0.5,0.1,1,0.2c0.7,0.1,1.2,0.1,1.4,0.1
				c0.7,0.1,1.2,0.3,1.5,0.6c0.3,0.3,0.5,0.7,0.5,1.3c0,0.7-0.3,1.2-0.8,1.6C391.5,54.3,390.7,54.5,389.8,54.5z M387,53.3
				c0.7,0.5,1.6,0.8,2.8,0.8c0.8,0,1.5-0.2,1.9-0.5c0.4-0.3,0.6-0.7,0.6-1.3c0-0.4-0.1-0.7-0.4-1c-0.3-0.2-0.7-0.4-1.3-0.5
				c-0.2,0-0.7-0.1-1.4-0.1c-0.5,0-0.9-0.1-1.1-0.2c-0.5-0.2-0.6-0.5-0.6-0.8c0-0.2,0.1-0.5,0.5-0.8c0.3-0.2,0.7-0.2,1.3-0.2
				c0.8,0,1.5,0.2,2.2,0.6l0.3-0.4c-0.7-0.5-1.5-0.7-2.5-0.7c-0.8,0-1.4,0.1-1.8,0.4c-0.4,0.3-0.6,0.7-0.6,1.1c0,0.5,0.2,0.8,0.5,1
				c0.3,0.2,0.9,0.3,1.7,0.4c1,0.1,1.5,0.1,1.8,0.2c0.6,0.2,0.8,0.6,0.8,0.9c0,0.4-0.2,0.7-0.6,0.9c-0.4,0.2-0.8,0.3-1.5,0.3
				c-0.9,0-1.7-0.3-2.5-0.8L387,53.3z" />
			</g>
			<g>
				<path class="st0" d="M400.2,49.2h-2.4v5h-0.8v-5h-2.4v-0.9h5.7V49.2z" />
				<path class="st0"
					d="M398,54.3h-1.2v-5h-2.4v-1.3h6.1v1.3H398V54.3z M397.1,53.9h0.4v-5h2.4v-0.5h-5.3V49h2.4V53.9z" />
			</g>
			<path class="st0" d="M258.1,50.9h2.7v2.5c-0.3,0.3-1.1,1.1-3,1.1c-2.2,0-3.6-1.5-3.6-3.2c0-1.5,1.2-3.1,3.6-3.1
			c1.6,0,2.5,0.6,2.8,0.8l-0.7,1.2c-0.4-0.3-1.1-0.7-2.2-0.7c-1.4,0-2.3,0.9-2.3,1.9c0,1.1,0.8,2,2.4,2c0.6,0,1.3-0.2,1.8-0.6V52
			h-1.5V50.9z" />
		</g>
		<g>
			<path class="st0" d="M403.1,48.7c-0.1,0-0.2,0-0.4,0c-0.1,0-0.2,0-0.2,0c0,0-0.1-0.1-0.1-0.1c0,0,0-0.1,0.1-0.1
			c0.1,0,0.2-0.1,0.3-0.1c0.2,0,0.4,0.1,0.6,0.2l0.1,0l0.2-0.3l-0.1,0c-0.2-0.2-0.5-0.3-0.8-0.3c-0.2,0-0.4,0.1-0.6,0.2
			c-0.1,0.1-0.2,0.3-0.2,0.5c0,0.2,0.1,0.3,0.2,0.4c0.1,0.1,0.3,0.1,0.5,0.1c0.3,0,0.4,0,0.4,0.1c0.1,0,0.1,0.1,0.1,0.1
			c0,0.1,0,0.1-0.1,0.2c-0.1,0-0.2,0.1-0.3,0.1c-0.2,0-0.4-0.1-0.6-0.2l-0.1-0.1l-0.2,0.4l0,0c0.2,0.2,0.5,0.3,0.9,0.3
			c0.3,0,0.5-0.1,0.6-0.2c0.1-0.1,0.2-0.3,0.2-0.5c0-0.2,0-0.3-0.1-0.4C403.4,48.8,403.2,48.7,403.1,48.7z" />
			<polygon class="st0" points="405.4,48 404.8,49 404.2,48 403.8,48 403.8,49.9 404.2,49.9 404.2,48.7 404.8,49.7 405.4,48.7 
			405.4,49.9 405.8,49.9 405.8,48 		" />
		</g>
	</g>
</svg>